<svg width="256" height="180" viewBox="0 0 256 180" fill="none" xmlns="http://www.w3.org/2000/svg">
<g clip-path="url(#clip0_1213_6233)">
<path d="M241.153 0H30.2502C22.38 0 16 4.55816 16 10.1809V136.425C16 142.047 22.38 146.605 30.2502 146.605H241.153C249.024 146.605 255.404 142.047 255.404 136.425V10.1809C255.404 4.55816 249.024 0 241.153 0Z" fill="#E6F3FA"/>
<path d="M160.981 48.3486H10.1887C4.56163 48.3486 0 52.4219 0 57.4465V170.26C0 175.285 4.56163 179.358 10.1887 179.358H160.981C166.608 179.358 171.17 175.285 171.17 170.26V57.4465C171.17 52.4219 166.608 48.3486 160.981 48.3486Z" fill="#319DFF" fill-opacity="0.2"/>
<path d="M197 13H73C68.5817 13 65 16.5817 65 21V125C65 129.418 68.5817 133 73 133H197C201.418 133 205 129.418 205 125V21C205 16.5817 201.418 13 197 13Z" fill="white"/>
<path d="M98.1111 40.8671C99.0144 39.0582 101.755 40.326 101.023 42.3203C100.665 43.047 100.119 43.9436 99.7456 44.8551C99.2005 46.8494 96.102 45.7517 97.021 43.7729C97.3792 42.8607 97.7373 41.9492 98.1111 40.8671ZM111.581 94.7212L100.105 102.666C99.5595 103.022 99.0144 103.022 98.4693 102.852L91.9132 98.8794L89.5467 100.333L94.0937 104.676C94.8257 105.403 94.6388 106.67 93.7355 107.211L92.1002 108.293C90.2779 109.561 92.6453 112.992 94.4667 112.095L96.2889 111.013C97.1922 110.472 98.298 111.013 98.4694 111.91L100.478 117.877L102.845 116.253L102.3 108.819C102.113 108.092 102.487 107.551 103.032 107.365L115.053 100.672C115.956 100.316 117.062 100.672 117.234 101.754L123.977 121.277L127.978 118.572L125.798 95.9736C125.611 95.4325 125.985 94.8914 126.53 94.5203C130.906 92.1712 138.909 88.1981 139.999 83.1286C140.186 81.6754 139.641 80.7796 138.177 80.424C133.085 79.1563 126.156 84.582 121.967 87.4723C121.422 87.8278 120.69 87.8278 120.145 87.4723L100.851 75.3695L96.8496 77.9042L111.409 92.5425C112.126 93.0983 112.126 94.1801 111.581 94.7212ZM86.0899 101.229C85.3579 100.503 85.1866 99.4203 86.2768 98.8801L91.0108 95.8042C91.5559 95.6186 92.101 95.4486 92.6461 95.8042L99.2022 99.6066L107.938 93.4543L93.1913 78.816C92.4592 78.0894 92.6461 76.8217 93.5494 76.2813C95.7299 75.0135 97.925 73.7466 99.9185 72.3089C100.651 71.9533 101.196 71.9533 101.741 72.3089L112.671 79.1862C110.305 74.1315 109.027 68.706 109.027 63.0954C109.027 42.675 125.596 26.2294 146.166 26.2294C166.737 26.2294 183.305 42.6758 183.305 63.0954C183.305 83.5158 166.753 100.146 146.166 100.146C140.529 100.146 134.876 98.6929 129.785 96.3438L128.882 96.6993L131.248 119.298C131.248 119.839 131.061 120.38 130.516 120.751L123.96 124.909C123.96 124.724 122.138 125.636 121.594 124.013L114.851 104.32L105.383 109.56L105.928 116.963C105.928 117.505 105.741 118.046 105.196 118.417L100.462 121.493C99.3719 121.848 98.453 121.678 98.0957 120.596L96.0865 114.629L95.9161 114.63C90.6371 117.52 85.3582 109.204 90.4501 105.773L90.637 105.587L86.0899 101.229ZM118.324 82.8039L121.048 84.4272C124.505 81.8925 129.239 78.6459 133.786 77.5637C133.054 76.6671 131.964 75.7549 130.329 74.1323C129.784 73.7768 129.426 73.4057 129.426 72.6791C130.516 63.4665 128.523 64.363 121.422 60.205C121.235 60.0195 120.877 59.6639 120.877 59.3084C119.055 53.8826 117.607 53.7127 113.963 52.0747C112.686 55.5061 112.14 59.3084 112.14 63.0961C112.126 70.1436 114.135 77.0226 118.324 82.8039ZM137.431 77.1927C137.976 77.3782 138.521 77.3782 138.895 77.5483C141.993 78.2749 143.629 80.7941 142.896 83.8705C142.538 85.8649 141.261 87.8429 139.627 89.4662C140.53 90.1928 141.807 91.0895 142.725 91.8153V90.362C142.538 87.8273 142.367 84.3953 146.369 81.8606C147.459 79.3259 148.378 77.7026 149.28 76.2649C150.558 74.1004 151.29 72.8335 150.184 69.5714C146.54 68.4892 144.36 66.8668 141.619 65.0578C138.708 63.0635 135.421 60.7144 129.427 58.7356C128.695 58.55 128.337 57.8389 128.337 57.1123C128.882 51.5166 131.607 52.0576 136.714 51.6865C137.446 50.6043 137.991 49.6922 138.537 48.7963C141.09 44.2827 141.448 43.7415 147.101 41.2068C146.556 40.8513 144.548 38.5022 144.189 38.5022C143.831 38.5022 139.814 41.9336 139.097 42.4746C138.552 43.0157 137.633 42.8302 137.088 42.4746C132.354 38.3166 133.631 36.5079 134.722 35.0708C134.909 34.7152 135.08 34.5297 131.623 32.5361C124.336 35.9675 118.512 41.9342 115.055 49.1681C119.789 51.5172 121.424 51.3326 123.619 57.8397C131.452 62.5388 133.819 61.812 132.542 72.1224C135.251 74.6726 136.714 75.9249 137.431 77.1927ZM137.259 91.4754C135.982 92.5576 134.535 93.4698 133.07 94.3657C137.072 96.1745 141.635 97.0703 146.182 97.0703C157.114 97.0703 166.753 91.8302 173.12 83.8697L170.567 78.9851C170.208 78.0885 170.925 74.6417 171.112 73.745C171.657 70.1281 171.657 69.7726 167.655 66.1556H161.473C160.741 66.1556 160.009 65.6145 160.009 64.8878C159.65 62.8935 158.731 59.4621 159.463 57.8396C160.195 56.2163 163.465 54.9493 165.101 53.8672C165.459 53.6816 165.833 53.6816 166.191 53.6816C166.923 53.8672 172.747 54.5783 173.291 54.4083C173.836 54.2227 174.568 53.3261 175.658 51.3324L176.016 51.1468C174.381 50.9613 172.917 50.9613 171.469 50.7913C166.548 50.6057 163.637 50.2502 161.814 43.2019C161.627 42.6607 161.814 42.1197 162.172 41.7486L164.182 39.7542L156.723 30.8973C153.266 29.8151 149.809 29.274 146.165 29.274C142.334 29.274 138.519 29.8151 135.062 31.0828C139.251 33.7874 138.332 35.2408 137.242 36.6785C136.884 37.2196 136.51 37.7607 138.146 39.2132C139.781 37.9455 142.335 35.4107 144.157 35.4107C146.337 35.5963 149.249 39.2132 150.9 40.6509C151.632 41.3775 151.445 42.8153 150.355 43.1856C143.612 46.0758 143.44 46.2615 141.074 50.4193C140.529 51.3159 139.984 52.4136 139.065 53.8507C138.878 54.3918 138.333 54.7473 137.788 54.7473C135.779 54.9329 131.777 54.0207 131.419 56.2006C137.243 58.3651 140.528 60.544 143.253 62.5229C145.977 64.3317 148.174 65.7687 151.63 66.6809C152.175 66.8664 152.534 67.222 152.721 67.7631C154.901 73.0032 153.811 74.8113 151.989 77.8878C151.085 79.1555 149.979 80.7781 149.077 83.4835C149.077 83.8391 148.719 84.0246 148.345 84.2101C145.433 85.8334 145.62 88.3681 145.791 90.1768C145.791 91.0735 145.978 93.0671 145.433 94.1492C144.701 95.417 143.067 95.9581 141.79 94.8759C140.342 93.6384 138.707 92.7418 137.258 91.4749L137.259 91.4754ZM163.295 33.8194L167.483 38.5186C168.215 39.2452 168.215 40.1419 167.483 40.8677L165.117 43.4024C166.207 47.5604 168.574 47.7458 171.86 47.9159C173.495 47.9159 175.13 47.9159 176.781 48.1015C173.666 42.1361 169.118 37.2514 163.295 33.8194ZM178.586 52.6157L178.228 53.1568C176.764 55.5059 176.048 56.5882 174.585 57.1292C172.762 58.0258 168.387 57.1292 166.207 56.7736C165.475 57.3147 162.376 58.768 162.205 59.1227C162.018 59.4783 162.75 62.3685 162.937 63.0951H168.029C168.574 63.0951 169.12 63.4507 169.665 63.9918C174.944 68.6909 174.944 69.0465 174.04 74.1165C173.853 75.1987 173.682 76.4656 173.495 78.0889L175.13 80.9791C178.4 75.9244 180.223 69.7721 180.223 63.0795C180.222 59.479 179.677 56.0477 178.586 52.6157ZM159.651 113.889C157.642 114.43 156.926 111.54 158.919 110.999C159.822 110.813 160.741 110.457 161.644 110.102C163.653 109.561 164.742 112.451 162.734 112.992C161.644 113.348 160.741 113.703 159.651 113.889ZM134.346 114.43C132.337 113.889 133.069 110.998 135.078 111.354C135.982 111.54 136.901 111.71 137.99 111.895C139.999 112.251 139.625 115.327 137.445 114.971C136.526 114.785 135.437 114.615 134.346 114.43ZM146.897 115.697C144.888 115.697 144.888 112.621 146.897 112.621C147.8 112.621 148.906 112.621 149.809 112.435C151.818 112.25 152.175 115.326 150.167 115.511C149.093 115.512 147.987 115.697 146.897 115.697ZM171.113 109.36C169.29 110.442 167.843 107.736 169.649 106.825C170.552 106.284 171.471 105.743 172.202 105.202C173.837 104.119 175.659 106.825 173.837 107.906C172.934 108.463 172.031 109.004 171.113 109.36ZM181.857 101.956C180.393 103.409 178.214 101.059 179.677 99.7914C180.409 99.0648 181.141 98.3381 181.857 97.6269C183.135 96.1737 185.501 98.3536 184.038 99.7914C183.321 100.518 182.589 101.229 181.857 101.956ZM113.948 21.3455C115.584 20.0778 117.592 22.6132 115.957 23.8802C115.054 24.4213 114.322 24.9624 113.591 25.6891C112.127 26.9568 109.947 24.7924 111.582 23.34C112.314 22.7989 113.216 22.0721 113.948 21.3455ZM105.026 30.2025C106.303 28.5792 108.669 30.5581 107.392 32.0113C106.66 32.908 106.115 33.6346 105.57 34.3604C104.48 36.1693 101.926 34.3604 103.016 32.7371C103.748 31.8413 104.294 30.9291 105.026 30.2025ZM94.2808 52.6162C94.639 50.6219 97.7376 51.163 97.3794 53.1573C97.1925 54.2395 97.0212 55.1517 96.8343 56.0476C96.6474 58.0419 93.5645 57.6709 93.7357 55.692C93.9226 54.6106 94.1095 53.6986 94.2808 52.6162ZM93.1914 65.4458C93.1914 63.4515 96.29 63.2813 96.29 65.4458C96.4769 66.3425 96.4769 67.2546 96.6482 68.3361C96.8351 70.3304 93.7366 70.6851 93.5496 68.6916C93.3783 67.6257 93.3783 66.5279 93.1914 65.4458Z" fill="#00488A"/>
</g>
<defs>
<clipPath id="clip0_1213_6233">
<rect width="256" height="180" fill="white"/>
</clipPath>
</defs>
</svg>
