<svg width="256" height="180" viewBox="0 0 256 180" fill="none" xmlns="http://www.w3.org/2000/svg">
<path d="M138.25 68H8.75C3.91751 68 0 71.4822 0 75.7778V172.222C0 176.517 3.91751 180 8.75 180H138.25C143.082 180 147 176.517 147 172.222V75.7778C147 71.4822 143.082 68 138.25 68Z" fill="#7017FF" fill-opacity="0.1"/>
<path d="M241.251 0H37.75C30.156 0 24 4.81916 24 10.7639V144.236C24 150.181 30.156 155 37.75 155H241.251C248.844 155 255 150.181 255 144.236V10.7639C255 4.81916 248.844 0 241.251 0Z" fill="#7017FF" fill-opacity="0.1"/>
<path d="M197.037 18H73.0371C68.6188 18 65.0371 21.5817 65.0371 26V130C65.0371 134.418 68.6188 138 73.0371 138H197.037C201.455 138 205.037 134.418 205.037 130V26C205.037 21.5817 201.455 18 197.037 18Z" fill="white"/>
<path d="M167.876 97.1618C167.876 97.1347 167.869 97.1101 167.868 97.083C167.864 94.2325 167.489 91.3958 166.752 88.6429C166.498 87.7015 165.53 87.1439 164.588 87.3973C163.647 87.6507 163.089 88.6192 163.343 89.5607C163.853 91.4698 164.168 93.4256 164.283 95.398H157.256C157.101 90.353 156.089 85.3709 154.265 80.6646C155.335 79.8904 156.359 79.0523 157.33 78.156C158.943 80.0373 160.308 82.1178 161.391 84.3467C161.579 84.7911 161.941 85.138 162.392 85.3078C162.843 85.4783 163.345 85.4554 163.779 85.2463C164.213 85.0372 164.543 84.6599 164.692 84.2007C164.84 83.7423 164.794 83.2428 164.565 82.8189C163.063 79.7124 161.079 76.8644 158.687 74.3788L158.651 74.3435L158.643 74.332L158.632 74.3247C152.452 67.9289 143.937 64.3165 135.043 64.3149C126.148 64.314 117.634 67.9239 111.45 74.3173C111.443 74.3173 111.435 74.3247 111.428 74.3312C111.421 74.3386 111.419 74.3493 111.41 74.3559L111.389 74.3772C105.491 80.4958 102.195 88.6644 102.195 97.1624C102.195 105.662 105.491 113.829 111.389 119.949L111.419 119.979C111.419 119.979 111.426 119.992 111.432 119.997L111.448 120.007C117.623 126.387 126.12 129.992 134.998 130C143.878 130.007 152.381 126.415 158.566 120.044C158.59 120.025 158.618 120.017 158.64 119.996C158.662 119.975 158.677 119.934 158.703 119.906C164.58 113.818 167.866 105.687 167.865 97.224C167.869 97.2002 167.876 97.179 167.876 97.1618ZM157.327 116.169C156.357 115.27 155.334 114.43 154.263 113.654C156.087 108.949 157.099 103.969 157.256 98.925H164.287C163.917 105.28 161.471 111.337 157.327 116.169ZM105.784 98.9248H112.822C112.978 103.971 113.989 108.953 115.813 113.659C114.74 114.437 113.714 115.28 112.741 116.181C108.599 111.344 106.155 105.283 105.783 98.925L105.784 98.9248ZM112.741 78.1484C113.715 79.0464 114.741 79.8878 115.813 80.6643C113.989 85.3706 112.977 90.3524 112.822 95.3976H105.784C106.153 89.0405 108.597 82.9795 112.741 78.1442V78.1484ZM153.729 98.9248C153.585 103.294 152.759 107.613 151.281 111.725C149.031 110.44 146.634 109.431 144.144 108.719C144.458 105.545 144.635 102.221 144.682 98.925L153.729 98.9248ZM125.94 85.598C125.626 88.7725 125.449 92.097 125.401 95.3937H116.348C116.493 91.0245 117.319 86.705 118.798 82.5917C121.049 83.8768 123.447 84.8855 125.94 85.598ZM120.197 79.3213C122.574 74.4846 125.891 70.8403 129.72 69.0607C127.975 73.2045 126.844 77.5795 126.361 82.0497C124.206 81.3838 122.138 80.4677 120.197 79.3213ZM125.396 98.925C125.443 102.217 125.621 105.539 125.935 108.718C123.444 109.431 121.048 110.44 118.798 111.725C117.32 107.612 116.496 103.294 116.353 98.9248L125.396 98.925ZM126.353 112.266C126.836 116.737 127.97 121.115 129.716 125.26C125.89 123.481 122.573 119.835 120.194 114.998C122.135 113.848 124.203 112.93 126.357 112.262L126.353 112.266ZM129.815 111.437V111.438C133.266 110.815 136.802 110.815 140.254 111.438C138.898 121.365 136.346 126.468 135.037 126.468C133.728 126.468 131.179 121.365 129.82 111.433L129.815 111.437ZM143.716 112.267C145.869 112.933 147.937 113.849 149.876 114.996C147.501 119.834 144.183 123.478 140.354 125.258C142.101 121.114 143.236 116.735 143.721 112.263L143.716 112.267ZM140.659 107.928C136.936 107.282 133.13 107.283 129.406 107.929C129.146 105.225 128.978 102.216 128.936 98.9267H141.138C141.092 102.21 140.926 105.215 140.665 107.924L140.659 107.928ZM128.939 95.3979C128.985 92.106 129.151 89.1039 129.409 86.3943C133.132 87.0405 136.939 87.0413 140.661 86.3951C140.922 89.0989 141.089 92.1085 141.131 95.3995L128.939 95.3979ZM135.037 83.3479C133.288 83.3446 131.543 83.1872 129.822 82.8772C131.179 72.9495 133.732 67.8469 135.037 67.8469C136.342 67.8469 138.897 72.9495 140.257 82.8795C138.534 83.1895 136.787 83.3463 135.037 83.3479ZM140.362 69.064C144.187 70.8435 147.504 74.4888 149.884 79.3247C147.944 80.4711 145.877 81.3871 143.724 82.053C143.24 77.5828 142.108 73.2069 140.362 69.064ZM117.294 77.3754C116.568 76.8202 115.866 76.229 115.187 75.6C117.077 73.8508 119.188 72.359 121.467 71.1625C119.827 73.0544 118.426 75.1415 117.294 77.3754ZM117.294 116.94C118.426 119.175 119.829 121.262 121.47 123.155C119.189 121.961 117.076 120.469 115.186 118.721C115.865 118.089 116.567 117.501 117.294 116.94ZM152.784 116.94C153.508 117.494 154.207 118.088 154.885 118.713C152.999 120.463 150.889 121.956 148.611 123.152C150.253 121.26 151.656 119.174 152.789 116.94H152.784ZM153.73 95.3985H144.678C144.631 92.101 144.453 88.7821 144.139 85.6028C146.63 84.8894 149.026 83.8807 151.276 82.5973C152.757 86.7109 153.585 91.0299 153.73 95.3985ZM148.608 71.1613C150.889 72.3569 153.003 73.8495 154.893 75.5995C154.213 76.2277 153.51 76.8223 152.784 77.3775C151.652 75.1428 150.25 73.0538 148.608 71.1613Z" fill="#3700AD"/>
<path d="M110.407 67.4367C110.931 67.8746 111.663 67.9697 112.283 67.6794C112.903 67.3899 113.299 66.7675 113.3 66.0827V60.7056H118.742C119.939 60.704 121.086 60.2275 121.933 59.3812C122.779 58.5349 123.255 57.3868 123.256 56.1904V30.5151C123.255 29.3186 122.778 28.1714 121.932 27.3251C121.086 26.4788 119.938 26.0031 118.742 26.0015H87.2473C86.0492 26.0015 84.8994 26.4771 84.0514 27.3226C83.2035 28.1689 82.7254 29.317 82.7221 30.5152V34.4063C82.7221 35.3806 83.5118 36.1703 84.4852 36.1703C85.4595 36.1703 86.2492 35.3806 86.2492 34.4063V30.5152C86.2525 29.9665 86.7002 29.5253 87.248 29.5286H118.743C119.288 29.5286 119.73 29.9698 119.731 30.5152V56.1904C119.731 56.7358 119.289 57.1786 118.743 57.1786H111.533C110.56 57.1786 109.77 57.9683 109.77 58.9426V62.3131L104.117 57.5904C104.096 57.5723 104.073 57.5625 104.05 57.5461C103.996 57.5034 103.941 57.4641 103.883 57.428C103.842 57.4034 103.801 57.3812 103.757 57.3599C103.696 57.3304 103.634 57.305 103.57 57.2812C103.526 57.2656 103.483 57.2533 103.439 57.241C103.372 57.2238 103.302 57.2099 103.233 57.2C103.189 57.1926 103.144 57.1894 103.1 57.1861C103.055 57.1828 103.024 57.1754 102.982 57.1754H87.2464C86.697 57.1779 86.25 56.7358 86.2468 56.1864V40.2837C86.2468 39.3095 85.4571 38.5206 84.4836 38.5206C83.5094 38.5206 82.7197 39.3095 82.7197 40.2837V56.1906C82.723 57.3887 83.2011 58.5377 84.0498 59.384C84.8978 60.2303 86.0475 60.7059 87.2465 60.7059H102.347L110.407 67.4367Z" fill="#3700AD"/>
<path d="M182.834 26H151.341C150.142 26.0016 148.993 26.4781 148.146 27.3252C147.299 28.1732 146.822 29.3221 146.82 30.5203V56.1892C146.822 57.3882 147.299 58.5372 148.146 59.3843C148.993 60.2314 150.142 60.7087 151.341 60.7095H156.778V66.0835C156.778 66.7682 157.174 67.3907 157.794 67.6801C158.414 67.9704 159.145 67.8753 159.671 67.4374L167.726 60.7104L182.834 60.7096C184.033 60.7079 185.181 60.2315 186.028 59.3835C186.875 58.5364 187.351 57.3875 187.352 56.1894V30.5204C187.351 29.3223 186.875 28.1733 186.028 27.3262C185.181 26.4791 184.033 26.0017 182.834 26ZM183.825 56.1889C183.825 56.7376 183.381 57.182 182.832 57.1829H167.087C167.063 57.1829 167.041 57.1886 167.019 57.1902C166.946 57.1927 166.873 57.1993 166.8 57.2124C166.756 57.2198 166.711 57.228 166.668 57.2386L166.669 57.2378C166.602 57.2542 166.537 57.2747 166.472 57.2993C166.428 57.3157 166.383 57.3346 166.339 57.3543C166.282 57.3813 166.225 57.4125 166.17 57.4461C166.124 57.474 166.081 57.5035 166.037 57.5363C165.994 57.5691 165.982 57.5691 165.956 57.5904L160.303 62.3132V58.9435C160.303 57.9701 159.515 57.1803 158.54 57.1803H151.341C150.792 57.1795 150.348 56.735 150.347 56.1864V30.5195C150.348 29.9709 150.792 29.5264 151.341 29.5264H182.834C183.381 29.5264 183.826 29.9717 183.826 30.5195L183.825 56.1889Z" fill="#3700AD"/>
<path d="M167.088 40.9326C166.108 40.9326 165.224 41.5222 164.85 42.4276C164.474 43.3321 164.682 44.3736 165.374 45.0665C166.067 45.7594 167.108 45.9669 168.013 45.5921C168.918 45.2173 169.508 44.3341 169.508 43.355C169.508 42.7129 169.254 42.0962 168.8 41.6427C168.346 41.1884 167.73 40.9326 167.088 40.9326Z" fill="#3700AD"/>
<path d="M157.42 40.9326C156.44 40.9326 155.557 41.5222 155.181 42.4276C154.806 43.3321 155.013 44.3736 155.706 45.0665C156.398 45.7594 157.44 45.9669 158.345 45.5921C159.25 45.2173 159.841 44.3341 159.841 43.355C159.841 42.7129 159.586 42.0962 159.131 41.6427C158.678 41.1884 158.062 40.9326 157.42 40.9326Z" fill="#3700AD"/>
<path d="M176.755 40.9326C175.775 40.9326 174.892 41.5222 174.516 42.4276C174.142 43.3321 174.348 44.3736 175.041 45.0665C175.733 45.7594 176.775 45.9669 177.68 45.5921C178.585 45.2173 179.176 44.3341 179.176 43.355C179.176 42.0175 178.092 40.9334 176.755 40.9326Z" fill="#3700AD"/>
<path d="M105.41 43.3553C105.41 42.3761 104.82 41.4929 103.916 41.1191C103.011 40.7443 101.97 40.9509 101.278 41.6431C100.586 42.336 100.379 43.3767 100.753 44.2811C101.128 45.1857 102.011 45.7753 102.989 45.7753C103.631 45.7753 104.247 45.5203 104.702 45.0668C105.155 44.6124 105.41 43.9974 105.41 43.3553Z" fill="#3700AD"/>
<path d="M95.7422 43.355C95.7422 42.375 95.1526 41.4918 94.2481 41.1162C93.3427 40.7414 92.3012 40.9481 91.6083 41.6402C90.9154 42.3332 90.7079 43.3746 91.0827 44.28C91.4574 45.1853 92.3407 45.7749 93.3206 45.7749C94.6573 45.7749 95.7414 44.6916 95.7422 43.355Z" fill="#3700AD"/>
<path d="M112.655 45.7758C113.634 45.775 114.516 45.1837 114.89 44.2783C115.264 43.373 115.056 42.3323 114.362 41.6403C113.669 40.9481 112.627 40.7423 111.723 41.1179C110.818 41.4927 110.229 42.3759 110.229 43.3558C110.229 43.9988 110.485 44.6146 110.94 45.069C111.395 45.5233 112.012 45.7774 112.655 45.7758Z" fill="#3700AD"/>
</svg>
