<svg width="256" height="180" viewBox="0 0 256 180" fill="none" xmlns="http://www.w3.org/2000/svg">
<g clip-path="url(#clip0_1213_6238)">
<path d="M240.892 0H31.5481C23.7361 0 17.4033 4.95189 17.4033 11.0604V148.209C17.4033 154.317 23.7361 159.269 31.5481 159.269H240.892C248.704 159.269 255.036 154.317 255.036 148.209V11.0604C255.036 4.95189 248.704 0 240.892 0Z" fill="#EBF3ED"/>
<path d="M158.94 52H10.0595C4.5038 52 0 56.0108 0 60.9584V172.042C0 176.989 4.5038 181 10.0595 181H158.94C164.496 181 169 176.989 169 172.042V60.9584C169 56.0108 164.496 52 158.94 52Z" fill="#398547" fill-opacity="0.2"/>
<path d="M198.403 20H74.4033C69.985 20 66.4033 23.5817 66.4033 28V132C66.4033 136.418 69.985 140 74.4033 140H198.403C202.822 140 206.403 136.418 206.403 132V28C206.403 23.5817 202.822 20 198.403 20Z" fill="white"/>
<path fill-rule="evenodd" clip-rule="evenodd" d="M101.324 124.654H99.357C98.771 124.654 98.2957 125.128 98.2957 125.715V130.939C98.2957 131.525 98.771 132 99.357 132H173.45C174.036 132 174.511 131.525 174.511 130.939V125.715C174.511 125.128 174.036 124.654 173.45 124.654H171.483V114.209C171.483 109.094 167.331 104.943 162.215 104.943H152.268C147.154 104.943 143.001 109.094 143.001 114.209V124.654H129.805V114.209C129.805 109.094 125.653 104.943 120.539 104.943H110.591C105.476 104.943 101.324 109.094 101.324 114.209V124.654ZM172.388 126.777V129.878H100.418V126.777H172.388ZM169.36 124.654V114.209C169.36 110.266 166.159 107.066 162.215 107.066H152.267C148.324 107.066 145.123 110.266 145.123 114.209V124.654H148.462V115.859C148.462 115.273 148.938 114.798 149.523 114.798C150.109 114.798 150.585 115.273 150.585 115.859V124.654H163.898V115.859C163.898 115.273 164.374 114.798 164.96 114.798C165.545 114.798 166.021 115.273 166.021 115.859V124.654H169.36ZM127.683 124.654V114.209C127.683 110.266 124.482 107.066 120.539 107.066H110.591C106.647 107.066 103.446 110.266 103.446 114.209V124.654H106.785V115.859C106.785 115.273 107.261 114.798 107.847 114.798C108.433 114.798 108.908 115.273 108.908 115.859V124.654H122.222V115.859C122.222 115.273 122.697 114.798 123.283 114.798C123.868 114.798 124.344 115.273 124.344 115.859V124.654H127.683ZM115.684 84.2832C110.117 84.2832 105.598 88.8025 105.598 94.3672C105.598 99.9348 110.117 104.453 115.684 104.453C121.25 104.453 125.769 99.935 125.769 94.3672C125.769 88.8025 121.25 84.2832 115.684 84.2832ZM157.36 84.2832C151.794 84.2832 147.276 88.8025 147.276 94.3672C147.276 99.9348 151.794 104.453 157.36 104.453C162.927 104.453 167.447 99.935 167.447 94.3672C167.447 88.8025 162.927 84.2832 157.36 84.2832ZM115.684 86.4058C120.079 86.4058 123.647 89.9738 123.647 94.3672C123.647 98.7629 120.079 102.331 115.684 102.331C111.289 102.331 107.721 98.7629 107.721 94.3672C107.721 89.9737 111.289 86.4058 115.684 86.4058ZM157.36 86.4058C161.755 86.4058 165.324 89.9738 165.324 94.3672C165.324 98.7629 161.755 102.331 157.36 102.331C152.966 102.331 149.398 98.7629 149.398 94.3672C149.398 89.9737 152.966 86.4058 157.36 86.4058ZM136.403 35.4882C133.89 30.5028 127.936 27.958 121.74 28.0005C121.157 28.0051 120.686 28.4804 120.686 29.0618V33.3659C119.594 33.2961 118.488 33.2643 117.369 33.2726C116.786 33.2772 116.315 33.7502 116.315 34.3339V48.8985H104.996C100.249 48.8985 96.3955 52.753 96.3955 57.5005V72.5782C96.3955 77.3265 100.249 81.1809 104.996 81.1809H130.489L135.46 90.8168C135.642 91.1708 136.006 91.3922 136.403 91.3922C136.8 91.3922 137.164 91.1708 137.346 90.8168L142.317 81.1809H167.81C172.558 81.1809 176.412 77.3265 176.412 72.5782V57.5005C176.412 52.753 172.558 48.8985 167.81 48.8985H156.491V34.3339C156.491 33.7502 156.021 33.2772 155.438 33.2726C154.319 33.2643 153.213 33.2961 152.12 33.3659V29.0618C152.12 28.4804 151.65 28.0051 151.067 28.0005C144.87 27.9581 138.917 30.5028 136.404 35.4882H136.403ZM156.491 51.0208V68.7154C156.491 68.9981 156.378 69.2695 156.177 69.4688C155.977 69.6689 155.705 69.7789 155.422 69.7766C148.748 69.7303 142.561 71.144 136.9 74.1383C136.589 74.3043 136.218 74.3043 135.907 74.1383C130.246 71.1441 124.059 69.7304 117.385 69.7766C117.102 69.7788 116.83 69.6689 116.63 69.4688C116.429 69.2695 116.316 68.9981 116.316 68.7154V51.0208H104.997C101.422 51.0208 98.5187 53.9241 98.5187 57.5005V72.5782C98.5187 76.1546 101.422 79.0586 104.997 79.0586H131.136C131.534 79.0586 131.897 79.2791 132.08 79.6339L136.404 88.0152L140.729 79.6339C140.912 79.2791 141.275 79.0586 141.673 79.0586H167.812C171.387 79.0586 174.29 76.1546 174.29 72.5782V57.5005C174.29 53.9241 171.387 51.0208 167.812 51.0208H156.491ZM154.368 66.1812C148.102 66.2835 142.274 67.701 136.916 70.5299C136.897 70.5406 136.878 70.5512 136.859 70.5603C136.795 70.5898 136.728 70.6148 136.659 70.6323C136.61 70.6429 136.561 70.6512 136.512 70.6573H136.508C136.481 70.6596 136.454 70.6618 136.428 70.6618H136.418L136.412 70.6641H136.391L136.381 70.6618H136.379C136.353 70.6618 136.325 70.6596 136.299 70.6573H136.295C136.246 70.6512 136.196 70.6429 136.148 70.6323C136.078 70.6148 136.011 70.5898 135.948 70.5603C135.929 70.5512 135.91 70.5406 135.891 70.5299C130.534 67.701 124.706 66.2835 118.438 66.1812V67.6586C124.876 67.7587 130.874 69.1784 136.403 72.005C141.932 69.1784 147.93 67.7585 154.368 67.6586V66.1812ZM138.522 67.4016C143.455 65.2412 148.744 64.146 154.368 64.0587V35.399C153.613 35.4119 152.863 35.4415 152.12 35.4922V59.842C152.12 60.127 152.007 60.3961 151.806 60.5955C151.606 60.7956 151.334 60.9055 151.051 60.9032C146.902 60.8759 141.327 62.5928 138.522 67.4001V67.4016ZM120.687 35.4935C119.944 35.4427 119.194 35.4132 118.438 35.4003V64.0599C124.063 64.1471 129.352 65.2425 134.285 67.4029C131.48 62.5956 125.905 60.8786 121.756 60.906C121.473 60.9083 121.201 60.7984 121.001 60.5983C120.8 60.3989 120.687 60.1298 120.687 59.8448V35.4935ZM122.809 34.502V34.5232V58.8109C127.057 59.0466 132.21 60.8675 135.342 65.1463V38.9162C134.264 33.2704 128.723 30.4074 122.809 30.1444V34.502ZM149.998 34.502V30.1449C144.084 30.408 138.543 33.2709 137.465 38.9167V65.1469C140.597 60.8678 145.75 59.047 149.998 58.8114V34.5237V34.502Z" fill="#0C6124"/>
</g>
<defs>
<clipPath id="clip0_1213_6238">
<rect width="256" height="180" fill="white"/>
</clipPath>
</defs>
</svg>
